<?xml version="1.0" encoding="UTF-8"?>
<svg version="1.1" xmlns="http://www.w3.org/2000/svg" width="32" height="32">
<path d="M0 0 C10.56 0 21.12 0 32 0 C32 10.56 32 21.12 32 32 C21.44 32 10.88 32 0 32 C0 21.44 0 10.88 0 0 Z " fill="#171717" transform="translate(0,0)"/>
<path d="M0 0 C2.28005288 1.6959071 3.37641274 3.30697254 4.765625 5.78125 C5.21679688 6.55210938 5.66796875 7.32296875 6.1328125 8.1171875 C6.890625 10.40625 6.890625 10.40625 6.30078125 12.51953125 C4.58901827 14.80978477 2.96044951 15.85598414 0.453125 17.21875 C-0.32933594 17.65832031 -1.11179687 18.09789063 -1.91796875 18.55078125 C-4.109375 19.40625 -4.109375 19.40625 -7.109375 18.40625 C-8.78515625 16.26171875 -8.78515625 16.26171875 -10.421875 13.59375 C-10.97488281 12.72105469 -11.52789062 11.84835938 -12.09765625 10.94921875 C-13.109375 8.40625 -13.109375 8.40625 -12.55078125 6.26171875 C-10.82346168 4.0382044 -9.18737823 2.9085176 -6.734375 1.53125 C-5.96351562 1.08007812 -5.19265625 0.62890625 -4.3984375 0.1640625 C-2.109375 -0.59375 -2.109375 -0.59375 0 0 Z " fill="#1B1B1B" transform="translate(19.109375,6.59375)"/>
<path d="M0 0 C2.28005288 1.6959071 3.37641274 3.30697254 4.765625 5.78125 C5.21679688 6.55210938 5.66796875 7.32296875 6.1328125 8.1171875 C6.890625 10.40625 6.890625 10.40625 6.30078125 12.51953125 C4.58901827 14.80978477 2.96044951 15.85598414 0.453125 17.21875 C-0.32933594 17.65832031 -1.11179687 18.09789063 -1.91796875 18.55078125 C-4.109375 19.40625 -4.109375 19.40625 -7.109375 18.40625 C-8.78515625 16.26171875 -8.78515625 16.26171875 -10.421875 13.59375 C-10.97488281 12.72105469 -11.52789062 11.84835938 -12.09765625 10.94921875 C-13.109375 8.40625 -13.109375 8.40625 -12.55078125 6.26171875 C-10.82346168 4.0382044 -9.18737823 2.9085176 -6.734375 1.53125 C-5.96351562 1.08007812 -5.19265625 0.62890625 -4.3984375 0.1640625 C-2.109375 -0.59375 -2.109375 -0.59375 0 0 Z M-7.296875 3.90625 C-8.37001953 4.60234375 -8.37001953 4.60234375 -9.46484375 5.3125 C-10.00753906 5.6734375 -10.55023438 6.034375 -11.109375 6.40625 C-10.779375 8.05625 -10.449375 9.70625 -10.109375 11.40625 C-7.09905756 12.34048645 -6.24287232 12.45074911 -3.109375 11.40625 C-2.119375 12.89125 -2.119375 12.89125 -1.109375 14.40625 C0.540625 14.07625 2.190625 13.74625 3.890625 13.40625 C4.82196761 10.88481025 5.05069832 9.79098764 4 7.265625 C3.55140625 6.56953125 3.1028125 5.8734375 2.640625 5.15625 C2.20234375 4.44984375 1.7640625 3.7434375 1.3125 3.015625 C0.60867187 2.21898437 0.60867187 2.21898437 -0.109375 1.40625 C-3.52258735 1.40625 -4.50410385 2.07492466 -7.296875 3.90625 Z " fill="#989898" transform="translate(19.109375,6.59375)"/>
<path d="M0 0 C0.99 0.33 1.98 0.66 3 1 C4.1875 3.5625 4.1875 3.5625 5 6 C3.1875 7.5625 3.1875 7.5625 1 9 C0.01 8.67 -0.98 8.34 -2 8 C-3.1875 5.4375 -3.1875 5.4375 -4 3 C-2.1875 1.4375 -2.1875 1.4375 0 0 Z " fill="#E6E6E6" transform="translate(14,17)"/>
</svg>
