<?xml version="1.0" encoding="UTF-8"?>
<svg version="1.1" xmlns="http://www.w3.org/2000/svg" width="844" height="226">
<path d="M0 0 C4.60735879 2.22853125 6.8961759 4.74929088 9.4375 9.125 C9.758396 9.66938721 10.07929199 10.21377441 10.40991211 10.7746582 C11.62136972 12.84148742 12.80980028 14.92085624 14 17 C15.10598329 18.9080088 16.21282326 20.81552117 17.3203125 22.72265625 C20.22492007 27.73442951 23.11493982 32.75442246 25.99891663 37.77809143 C28.9036908 42.83650474 31.82303111 47.88641898 34.74560547 52.93457031 C36.61244893 56.16577611 38.46847798 59.40303329 40.32421875 62.640625 C42.77727153 66.91169955 45.28390624 71.14439222 47.83203125 75.359375 C48.43901855 76.38264893 49.04600586 77.40592285 49.67138672 78.46020508 C50.80886334 80.37775102 51.96417967 82.28488216 53.14111328 84.1784668 C56.81446247 90.44199811 58.30018152 95.74143264 57 103 C54.77146875 107.60735879 52.25070912 109.8961759 47.875 112.4375 C47.33061279 112.758396 46.78622559 113.07929199 46.2253418 113.40991211 C44.15851258 114.62136972 42.07914376 115.80980028 40 117 C38.0919912 118.10598329 36.18447883 119.21282326 34.27734375 120.3203125 C29.26557049 123.22492007 24.24557754 126.11493982 19.22190857 128.99891663 C14.16349526 131.9036908 9.11358102 134.82303111 4.06542969 137.74560547 C0.83422389 139.61244893 -2.40303329 141.46847798 -5.640625 143.32421875 C-9.91169955 145.77727153 -14.14439222 148.28390624 -18.359375 150.83203125 C-19.38264893 151.43901855 -20.40592285 152.04600586 -21.46020508 152.67138672 C-23.37775102 153.80886334 -25.28488216 154.96417967 -27.1784668 156.14111328 C-33.44199811 159.81446247 -38.74143264 161.30018152 -46 160 C-50.60735879 157.77146875 -52.8961759 155.25070912 -55.4375 150.875 C-55.758396 150.33061279 -56.07929199 149.78622559 -56.40991211 149.2253418 C-57.62136972 147.15851258 -58.80980028 145.07914376 -60 143 C-61.10598329 141.0919912 -62.21282326 139.18447883 -63.3203125 137.27734375 C-66.22492007 132.26557049 -69.11493982 127.24557754 -71.99891663 122.22190857 C-74.9036908 117.16349526 -77.82303111 112.11358102 -80.74560547 107.06542969 C-82.61244893 103.83422389 -84.46847798 100.59696671 -86.32421875 97.359375 C-88.77727153 93.08830045 -91.28390624 88.85560778 -93.83203125 84.640625 C-94.43901855 83.61735107 -95.04600586 82.59407715 -95.67138672 81.53979492 C-96.80886334 79.62224898 -97.96417967 77.71511784 -99.14111328 75.8215332 C-102.81446247 69.55800189 -104.30018152 64.25856736 -103 57 C-100.77146875 52.39264121 -98.25070912 50.1038241 -93.875 47.5625 C-93.33061279 47.241604 -92.78622559 46.92070801 -92.2253418 46.59008789 C-90.15851258 45.37863028 -88.07914376 44.19019972 -86 43 C-84.0919912 41.89401671 -82.18447883 40.78717674 -80.27734375 39.6796875 C-75.26557049 36.77507993 -70.24557754 33.88506018 -65.22190857 31.00108337 C-60.16349526 28.0963092 -55.11358102 25.17696889 -50.06542969 22.25439453 C-46.83422389 20.38755107 -43.59696671 18.53152202 -40.359375 16.67578125 C-36.08830045 14.22272847 -31.85560778 11.71609376 -27.640625 9.16796875 C-26.61735107 8.56098145 -25.59407715 7.95399414 -24.53979492 7.32861328 C-22.62224898 6.19113666 -20.71511784 5.03582033 -18.8215332 3.85888672 C-12.55800189 0.18553753 -7.25856736 -1.30018152 0 0 Z M-21.8125 15.5625 C-22.96453634 16.24770775 -24.11755134 16.93127248 -25.27148438 17.61328125 C-27.66610846 19.0302955 -30.05638282 20.45425981 -32.44384766 21.88330078 C-37.92393876 25.15548354 -43.46515087 28.32168038 -49 31.5 C-51.13952767 32.73532252 -53.27884936 33.97100186 -55.41796875 35.20703125 C-59.41144041 37.51162854 -63.40940136 39.808027 -67.4133606 42.09432983 C-69.80537117 43.46063872 -72.19559708 44.83005286 -74.58569336 46.19970703 C-76.26828963 47.16221014 -77.95344836 48.12022931 -79.63867188 49.078125 C-81.17297852 49.95791016 -81.17297852 49.95791016 -82.73828125 50.85546875 C-84.08466675 51.62346802 -84.08466675 51.62346802 -85.45825195 52.40698242 C-90.49490916 55.45870753 -90.49490916 55.45870753 -94 60 C-95.26104255 67.53549817 -91.10616582 72.81015572 -87.3125 79.0625 C-86.29027652 80.78833822 -85.26805698 82.5141788 -84.24620056 84.24023438 C-83.19891435 86.00318173 -82.14451721 87.76168014 -81.08789062 89.51904297 C-79.07584782 92.86735023 -77.08975223 96.23050716 -75.109375 99.59765625 C-72.08534494 104.73919935 -69.04816229 109.87273085 -66 115 C-65.5875 114.4225 -65.175 113.845 -64.75 113.25 C-61.37260895 108.90764008 -58.00312337 106.22847163 -53.17578125 103.58203125 C-52.06525391 102.96779297 -50.95472656 102.35355469 -49.81054688 101.72070312 C-48.65619141 101.09099609 -47.50183594 100.46128906 -46.3125 99.8125 C-44.01548767 98.55076973 -41.72061283 97.28523044 -39.42578125 96.01953125 C-38.40911377 95.46370361 -37.39244629 94.90787598 -36.3449707 94.33520508 C-34.11318957 93.20138968 -34.11318957 93.20138968 -33 92 C-31.109375 91.7265625 -31.109375 91.7265625 -28.75 91.625 C-27.98171875 91.57601562 -27.2134375 91.52703125 -26.421875 91.4765625 C-22.83447224 92.25190439 -21.12138473 94.16112155 -19 97 C-16.61955355 100.79385952 -14.45964389 104.69545919 -12.3125 108.625 C-11.16357465 110.70097167 -10.01386999 112.77651229 -8.86328125 114.8515625 C-8.36094971 115.76760254 -7.85861816 116.68364258 -7.34106445 117.62744141 C-6.30333424 119.46335297 -5.16980673 121.24528991 -4 123 C-3.46083854 125.6602023 -3.26629902 128.29262663 -3 131 C0.92509536 129.53927861 4.45418138 127.70246571 8.0859375 125.62109375 C8.66047165 125.2928511 9.2350058 124.96460846 9.82695007 124.62641907 C11.67842316 123.56709882 13.52694204 122.50276553 15.375 121.4375 C16.64379644 120.70800366 17.91259528 119.97851149 19.18139648 119.24902344 C21.66774208 117.81791137 24.15227719 116.38372608 26.63525391 114.94677734 C28.66466104 113.77260142 30.69523295 112.60043082 32.72802734 111.43212891 C34.84504339 110.21390844 36.95536537 108.98520745 39.0625 107.75 C40.16722656 107.10546875 41.27195313 106.4609375 42.41015625 105.796875 C46.19820465 103.16866646 47.69141906 101.55500593 48.59765625 96.98828125 C48.31146473 91.09085923 44.41310414 86.07974328 41.4375 81.1875 C40.75229225 80.03546366 40.06872752 78.88244866 39.38671875 77.72851562 C37.9697045 75.33389154 36.54574019 72.94361718 35.11669922 70.55615234 C31.84451646 65.07606124 28.67831962 59.53484913 25.5 54 C24.26467748 51.86047233 23.02899814 49.72115064 21.79296875 47.58203125 C19.48837146 43.58855959 17.191973 39.59059864 14.90567017 35.5866394 C13.53936128 33.19462883 12.16994714 30.80440292 10.80029297 28.41430664 C9.83778986 26.73171037 8.87977069 25.04655164 7.921875 23.36132812 C7.33535156 22.33845703 6.74882812 21.31558594 6.14453125 20.26171875 C5.63253174 19.36412842 5.12053223 18.46653809 4.59301758 17.54174805 C1.54129247 12.50509084 1.54129247 12.50509084 -3 9 C-10.47614745 7.77589467 -15.60654814 11.78786023 -21.8125 15.5625 Z " fill="#FFFFFF" transform="translate(155,33)"/>
<path d="M0 0 C41.18918919 0 41.18918919 0 53.71875 11.58984375 C62.66769781 21.29214686 64.48434495 31.78611009 64.27734375 44.50390625 C64.04997802 49.97086426 62.75308374 54.26946912 60 59 C59.55269531 59.78761719 59.10539062 60.57523438 58.64453125 61.38671875 C52.65782953 71.09705264 44.10879843 77.22280039 33 80 C22.11 80 11.22 80 0 80 C0 53.6 0 27.2 0 0 Z M12 12 C12 30.48 12 48.96 12 68 C29.64298648 68.08163831 29.64298648 68.08163831 43.8125 59.3515625 C49.38191619 53.66611681 51.70333844 47.5809456 52.125 39.6484375 C51.65595872 31.35226982 47.7380496 24.29946251 41.875 18.5625 C32.75389795 11.12436901 23.76946485 12 12 12 Z " fill="#FFFFFF" transform="translate(256,73)"/>
<path d="M0 0 C32 0 32 0 42 6 C48.0152656 14.224955 48.77784644 20.85417683 48 31 C46.31750093 37.72999629 41.47828524 42.04108293 36 46 C32.94599862 47.80204036 30.76751791 48.2406092 27.234375 48.1953125 C26.43225586 48.19031738 25.63013672 48.18532227 24.80371094 48.18017578 C23.79598633 48.16196777 22.78826172 48.14375977 21.75 48.125 C18.5325 48.08375 15.315 48.0425 12 48 C12 58.56 12 69.12 12 80 C8.04 80 4.08 80 0 80 C0 53.6 0 27.2 0 0 Z M13 14 C13 20.6 13 27.2 13 34 C15.536875 34.103125 18.07375 34.20625 20.6875 34.3125 C21.47729248 34.35802002 22.26708496 34.40354004 23.08081055 34.45043945 C27.21517496 34.53146442 28.60379217 34.32083936 31.95703125 31.60546875 C34.9275651 27.81704413 35.46403277 25.82594084 35 21 C32.7241177 16.77518254 32.7241177 16.77518254 29 14 C26.28024285 13.92812481 23.59325368 13.9072138 20.875 13.9375 C16.976875 13.9684375 16.976875 13.9684375 13 14 Z " fill="#FFFFFF" transform="translate(438,73)"/>
<path d="M0 0 C8.04071716 5.46768767 14.35713546 11.78672485 16.953125 21.328125 C17.97008074 32.73931439 17.08780568 41.52074309 9.640625 50.578125 C3.75028057 56.89640044 -1.9995096 60.87830798 -10.81640625 61.6640625 C-22.23808647 61.92046185 -29.76998744 60.10045244 -38.2578125 52.1875 C-45.41707366 44.7468705 -47.46537447 37.63799487 -47.41040039 27.37304688 C-47.154444 17.46241552 -43.06295379 11.07888989 -36.046875 4.328125 C-26.55128048 -3.80505814 -11.27874483 -6.1129075 0 0 Z M-29.421875 14.390625 C-33.45383855 18.90258421 -34.90547585 23.70477169 -35.140625 29.73046875 C-34.69297317 36.27737679 -32.40126469 40.9083356 -27.796875 45.640625 C-22.13036098 49.11780406 -16.68468534 49.82592964 -10.21875 48.8671875 C-4.51139006 47.45061255 -0.14068095 44.36988284 2.953125 39.328125 C5.21300045 32.87133799 5.73949895 26.82059019 3.1640625 20.34375 C0.77350351 15.79585728 -2.07430025 12.36644951 -7.00390625 10.64453125 C-15.439872 8.3751156 -22.03509484 9.87648157 -29.421875 14.390625 Z " fill="#FFFFFF" transform="translate(715.046875,91.671875)"/>
<path d="M0 0 C8.04071716 5.46768767 14.35713546 11.78672485 16.953125 21.328125 C17.97008074 32.73931439 17.08780568 41.52074309 9.640625 50.578125 C3.75028057 56.89640044 -1.9995096 60.87830798 -10.81640625 61.6640625 C-22.23808647 61.92046185 -29.76998744 60.10045244 -38.2578125 52.1875 C-45.41707366 44.7468705 -47.46537447 37.63799487 -47.41040039 27.37304688 C-47.154444 17.46241552 -43.06295379 11.07888989 -36.046875 4.328125 C-26.55128048 -3.80505814 -11.27874483 -6.1129075 0 0 Z M-29.421875 14.390625 C-33.45383855 18.90258421 -34.90547585 23.70477169 -35.140625 29.73046875 C-34.69297317 36.27737679 -32.40126469 40.9083356 -27.796875 45.640625 C-22.13036098 49.11780406 -16.68468534 49.82592964 -10.21875 48.8671875 C-4.51139006 47.45061255 -0.14068095 44.36988284 2.953125 39.328125 C5.21300045 32.87133799 5.73949895 26.82059019 3.1640625 20.34375 C0.77350351 15.79585728 -2.07430025 12.36644951 -7.00390625 10.64453125 C-15.439872 8.3751156 -22.03509484 9.87648157 -29.421875 14.390625 Z " fill="#FFFFFF" transform="translate(537.046875,91.671875)"/>
<path d="M0 0 C8.04071716 5.46768767 14.35713546 11.78672485 16.953125 21.328125 C17.97008074 32.73931439 17.08780568 41.52074309 9.640625 50.578125 C3.75028057 56.89640044 -1.9995096 60.87830798 -10.81640625 61.6640625 C-22.23808647 61.92046185 -29.76998744 60.10045244 -38.2578125 52.1875 C-45.41707366 44.7468705 -47.46537447 37.63799487 -47.41040039 27.37304688 C-47.154444 17.46241552 -43.06295379 11.07888989 -36.046875 4.328125 C-26.55128048 -3.80505814 -11.27874483 -6.1129075 0 0 Z M-29.421875 14.390625 C-33.45383855 18.90258421 -34.90547585 23.70477169 -35.140625 29.73046875 C-34.69297317 36.27737679 -32.40126469 40.9083356 -27.796875 45.640625 C-22.13036098 49.11780406 -16.68468534 49.82592964 -10.21875 48.8671875 C-4.51139006 47.45061255 -0.14068095 44.36988284 2.953125 39.328125 C5.21300045 32.87133799 5.73949895 26.82059019 3.1640625 20.34375 C0.77350351 15.79585728 -2.07430025 12.36644951 -7.00390625 10.64453125 C-15.439872 8.3751156 -22.03509484 9.87648157 -29.421875 14.390625 Z " fill="#FFFFFF" transform="translate(373.046875,91.671875)"/>
<path d="M0 0 C1.23234375 -0.01546875 2.4646875 -0.0309375 3.734375 -0.046875 C16.87148074 0.00950743 16.87148074 0.00950743 22 4.5 C27.10653858 10.03873558 26.52072575 15.65004886 26.390625 22.8984375 C26.38496521 24.08853424 26.37930542 25.27863098 26.37347412 26.50479126 C26.35113451 30.29527486 26.30093963 34.08480345 26.25 37.875 C26.22993201 40.44920507 26.21168177 43.023425 26.1953125 45.59765625 C26.15127715 51.89880388 26.08226361 58.19924017 26 64.5 C22.04 64.5 18.08 64.5 14 64.5 C13.970271 62.53994019 13.970271 62.53994019 13.93994141 60.5402832 C13.86378281 55.6852718 13.77508094 50.83055608 13.68261719 45.97583008 C13.64436986 43.87595463 13.6095096 41.77601462 13.578125 39.67602539 C13.5323825 36.65487619 13.47440277 33.63416984 13.4140625 30.61328125 C13.40251129 29.67664139 13.39096008 28.74000153 13.37905884 27.77497864 C13.27142019 21.39577924 13.27142019 21.39577924 11 15.5 C7.38511692 13.41642156 4.11871712 13.22898614 0 13.25 C-1.010625 13.24484375 -2.02125 13.2396875 -3.0625 13.234375 C-6.18808027 13.51700726 -8.27728145 13.93065528 -11 15.5 C-13.69673708 20.2148603 -13.3490033 25.33789861 -13.4140625 30.61328125 C-13.43342865 31.58283249 -13.4527948 32.55238373 -13.4727478 33.55131531 C-13.53237436 36.63828828 -13.5788614 39.72529888 -13.625 42.8125 C-13.66319534 44.90952118 -13.70224798 47.00652694 -13.7421875 49.10351562 C-13.83806209 54.23555131 -13.92215577 59.36766043 -14 64.5 C-17.96 64.5 -21.92 64.5 -26 64.5 C-26.09897244 56.91947224 -26.17151964 49.33932169 -26.21972656 41.75830078 C-26.23982563 39.18010912 -26.26710941 36.60196296 -26.30175781 34.02392578 C-26.35034847 30.31531539 -26.37298658 26.60730844 -26.390625 22.8984375 C-26.41127014 21.74822113 -26.43191528 20.59800476 -26.45318604 19.41293335 C-26.45493994 13.13940604 -26.33469338 9.20156448 -22 4.5 C-15.89700401 -0.84373701 -7.61758199 -0.09561818 0 0 Z " fill="#FFFFFF" transform="translate(766,88.5)"/>
<path d="M0 0 C3.96 0 7.92 0 12 0 C12 3.3 12 6.6 12 10 C17.28 10 22.56 10 28 10 C28 13.96 28 17.92 28 22 C22.72 22 17.44 22 12 22 C12.09714754 26.46623012 12.20000525 30.93157764 12.31738281 35.3972168 C12.35556704 36.91503978 12.39043808 38.43295001 12.421875 39.95092773 C12.46775628 42.13817431 12.52571029 44.32482582 12.5859375 46.51171875 C12.63306885 48.48338013 12.63306885 48.48338013 12.68115234 50.49487305 C12.98122292 53.7935815 13.46888415 56.08128931 15 59 C19.00119135 61.35364197 23.45935328 61.53823932 28 62 C28 65.96 28 69.92 28 74 C25.29105233 74.08144943 22.58458737 74.14070614 19.875 74.1875 C19.11445312 74.21263672 18.35390625 74.23777344 17.5703125 74.26367188 C11.46937149 74.34256335 7.40726496 73.08195889 2.6875 69 C0.18463397 66.03364026 -0.12476304 63.54609324 -0.11352539 59.80395508 C-0.11344986 58.96331009 -0.11337433 58.1226651 -0.11329651 57.25654602 C-0.10813522 56.35333115 -0.10297394 55.45011627 -0.09765625 54.51953125 C-0.0962413 53.59154221 -0.09482635 52.66355316 -0.09336853 51.70744324 C-0.08776937 48.74242942 -0.07521704 45.77749101 -0.0625 42.8125 C-0.05748489 40.80273547 -0.052922 38.79296975 -0.04882812 36.78320312 C-0.03780021 31.85543968 -0.02053617 26.92773263 0 22 C-2.64 22 -5.28 22 -8 22 C-8 18.04 -8 14.08 -8 10 C-5.36 10 -2.72 10 0 10 C0 6.7 0 3.4 0 0 Z " fill="#FFFFFF" transform="translate(612,79)"/>
<path d="M0 0 C3.96 0 7.92 0 12 0 C12 3.3 12 6.6 12 10 C17.28 10 22.56 10 28 10 C28 13.96 28 17.92 28 22 C22.72 22 17.44 22 12 22 C12.09714754 26.46623012 12.20000525 30.93157764 12.31738281 35.3972168 C12.35556704 36.91503978 12.39043808 38.43295001 12.421875 39.95092773 C12.46775628 42.13817431 12.52571029 44.32482582 12.5859375 46.51171875 C12.63306885 48.48338013 12.63306885 48.48338013 12.68115234 50.49487305 C12.98122292 53.7935815 13.46888415 56.08128931 15 59 C19.00119135 61.35364197 23.45935328 61.53823932 28 62 C28 65.96 28 69.92 28 74 C25.29105233 74.08144943 22.58458737 74.14070614 19.875 74.1875 C19.11445313 74.21263672 18.35390625 74.23777344 17.5703125 74.26367188 C11.46937149 74.34256335 7.40726496 73.08195889 2.6875 69 C0.18463397 66.03364026 -0.12476304 63.54609324 -0.11352539 59.80395508 C-0.11344986 58.96331009 -0.11337433 58.1226651 -0.11329651 57.25654602 C-0.10813522 56.35333115 -0.10297394 55.45011627 -0.09765625 54.51953125 C-0.0962413 53.59154221 -0.09482635 52.66355316 -0.09336853 51.70744324 C-0.08776937 48.74242942 -0.07521704 45.77749101 -0.0625 42.8125 C-0.05748489 40.80273547 -0.052922 38.79296975 -0.04882812 36.78320312 C-0.03780021 31.85543968 -0.02053617 26.92773263 0 22 C-2.64 22 -5.28 22 -8 22 C-8 18.04 -8 14.08 -8 10 C-5.36 10 -2.72 10 0 10 C0 6.7 0 3.4 0 0 Z " fill="#FFFFFF" transform="translate(402,79)"/>
<path d="M0 0 C1.01320313 0.01804687 2.02640625 0.03609375 3.0703125 0.0546875 C5.54728972 0.10142292 8.0237741 0.17315161 10.5 0.25 C10.5 4.21 10.5 8.17 10.5 12.25 C9.54738281 12.29898438 8.59476563 12.34796875 7.61328125 12.3984375 C6.35902344 12.47320312 5.10476563 12.54796875 3.8125 12.625 C1.95044922 12.72941406 1.95044922 12.72941406 0.05078125 12.8359375 C-3.28258343 13.22464669 -5.61362884 13.55458199 -8.5 15.25 C-11.1907944 19.97265499 -10.84894591 25.08324587 -10.9140625 30.36328125 C-10.93342865 31.33283249 -10.9527948 32.30238373 -10.9727478 33.30131531 C-11.03237436 36.38828828 -11.0788614 39.47529888 -11.125 42.5625 C-11.16319534 44.65952118 -11.20224798 46.75652694 -11.2421875 48.85351562 C-11.33806209 53.98555131 -11.42215577 59.11766043 -11.5 64.25 C-15.46 64.25 -19.42 64.25 -23.5 64.25 C-23.59897244 56.66947224 -23.67151964 49.08932169 -23.71972656 41.50830078 C-23.73982563 38.93010912 -23.76710941 36.35196296 -23.80175781 33.77392578 C-23.85034847 30.06531539 -23.87298658 26.35730844 -23.890625 22.6484375 C-23.91127014 21.49822113 -23.93191528 20.34800476 -23.95318604 19.16293335 C-23.95493888 12.89319831 -23.84346615 8.94206359 -19.5 4.25 C-13.79839077 -0.51844371 -7.06682827 -0.24112537 0 0 Z " fill="#FFFFFF" transform="translate(585.5,88.75)"/>
<path d="M0 0 C3.96 0 7.92 0 12 0 C12 21.12 12 42.24 12 64 C8.04 64 4.08 64 0 64 C0 42.88 0 21.76 0 0 Z " fill="#FFFFFF" transform="translate(648,89)"/>
<path d="M0 0 C4.34586828 -0.39507893 6.32003497 -0.45331002 10 2 C10.39507893 6.34586828 10.45331002 8.32003497 8 12 C3.65413172 12.39507893 1.67996503 12.45331002 -2 10 C-2.39507893 5.65413172 -2.45331002 3.67996503 0 0 Z " fill="#FFFFFF" transform="translate(650,73)"/>
</svg>
